<svg width="39" height="48" viewBox="0 0 39 48" fill="none" xmlns="http://www.w3.org/2000/svg">
<path fill-rule="evenodd" clip-rule="evenodd" d="M19.2686 47.6703C19.2686 47.6703 38.5372 34.8753 38.5372 19.9478C38.5372 14.8577 36.5072 9.97599 32.8936 6.37671C29.28 2.77743 24.379 0.755371 19.2686 0.755371C14.1583 0.755371 9.25721 2.77743 5.64365 6.37671C2.03008 9.97599 0 14.8577 0 19.9478C0 34.8753 19.2686 47.6703 19.2686 47.6703ZM27.5772 19.9477C27.5772 24.5183 23.8573 28.2234 19.2686 28.2234C14.6799 28.2234 10.9601 24.5183 10.9601 19.9477C10.9601 15.3772 14.6799 11.672 19.2686 11.672C23.8573 11.672 27.5772 15.3772 27.5772 19.9477Z" fill="#FAFF00"/>
</svg>
