<svg width="23" height="28" viewBox="0 0 23 28" fill="none" xmlns="http://www.w3.org/2000/svg">
<path fill-rule="evenodd" clip-rule="evenodd" d="M11.5 28C11.5 28 23 20.3636 23 11.4545C23 8.41661 21.7884 5.5031 19.6317 3.35496C17.4751 1.20681 14.55 0 11.5 0C8.45001 0 5.52494 1.20681 3.36827 3.35496C1.2116 5.5031 0 8.41661 0 11.4545C0 20.3636 11.5 28 11.5 28ZM16.4587 11.4545C16.4587 14.1823 14.2386 16.3936 11.5 16.3936C8.76136 16.3936 6.54126 14.1823 6.54126 11.4545C6.54126 8.72667 8.76136 6.51534 11.5 6.51534C14.2386 6.51534 16.4587 8.72667 16.4587 11.4545Z" fill="#B6B7A9"/>
</svg>
