<svg width="559" height="119" viewBox="0 0 559 119" fill="none" xmlns="http://www.w3.org/2000/svg">
<path d="M149.544 111.444V99.9258H151.301V101.563C152.147 100.298 153.369 99.6655 154.967 99.6655C155.661 99.6655 156.297 99.792 156.875 100.045C157.461 100.291 157.899 100.616 158.188 101.021C158.477 101.426 158.679 101.907 158.795 102.464C158.867 102.825 158.904 103.458 158.904 104.362V111.444H156.951V104.438C156.951 103.642 156.875 103.049 156.724 102.659C156.572 102.261 156.301 101.947 155.91 101.715C155.527 101.477 155.075 101.357 154.554 101.357C153.723 101.357 153.004 101.621 152.396 102.149C151.796 102.677 151.496 103.678 151.496 105.153V111.444H149.544ZM169.793 107.735L171.81 107.984C171.492 109.163 170.902 110.077 170.042 110.728C169.182 111.379 168.083 111.704 166.745 111.704C165.06 111.704 163.723 111.187 162.732 110.153C161.749 109.112 161.257 107.655 161.257 105.782C161.257 103.845 161.756 102.341 162.754 101.271C163.752 100.201 165.046 99.6655 166.637 99.6655C168.177 99.6655 169.435 100.19 170.411 101.238C171.387 102.286 171.875 103.762 171.875 105.663C171.875 105.779 171.871 105.952 171.864 106.184H163.274C163.347 107.449 163.705 108.418 164.348 109.09C164.992 109.763 165.794 110.099 166.756 110.099C167.472 110.099 168.083 109.911 168.589 109.535C169.095 109.159 169.496 108.559 169.793 107.735ZM163.383 104.579H169.814C169.728 103.61 169.482 102.883 169.077 102.399C168.455 101.647 167.649 101.271 166.658 101.271C165.762 101.271 165.006 101.571 164.391 102.171C163.784 102.771 163.448 103.574 163.383 104.579ZM176.398 111.444L172.873 99.9258H174.89L176.723 106.574L177.406 109.047C177.435 108.924 177.634 108.132 178.003 106.672L179.836 99.9258H181.842L183.567 106.607L184.141 108.808L184.803 106.585L186.777 99.9258H188.675L185.074 111.444H183.046L181.213 104.546L180.768 102.583L178.437 111.444H176.398ZM205.594 109.568C204.951 110.283 204.249 110.822 203.49 111.184C202.731 111.538 201.91 111.715 201.028 111.715C199.401 111.715 198.111 111.165 197.156 110.066C196.383 109.17 195.996 108.168 195.996 107.062C195.996 106.079 196.31 105.193 196.939 104.405C197.576 103.61 198.523 102.912 199.781 102.312C199.065 101.488 198.588 100.819 198.349 100.305C198.111 99.792 197.991 99.2967 197.991 98.8195C197.991 97.8651 198.364 97.0372 199.108 96.3358C199.86 95.6273 200.804 95.273 201.939 95.273C203.024 95.273 203.909 95.6056 204.596 96.2708C205.29 96.936 205.638 97.7349 205.638 98.6677C205.638 100.179 204.636 101.469 202.633 102.54L205.486 106.173C205.811 105.537 206.064 104.799 206.245 103.96L208.273 104.394C207.926 105.782 207.456 106.925 206.863 107.821C207.593 108.79 208.421 109.604 209.347 110.262L208.034 111.813C207.246 111.306 206.433 110.558 205.594 109.568ZM201.625 101.281C202.471 100.783 203.016 100.345 203.262 99.9691C203.515 99.5932 203.642 99.1774 203.642 98.7219C203.642 98.1796 203.468 97.7385 203.121 97.3987C202.782 97.0517 202.355 96.8781 201.842 96.8781C201.314 96.8781 200.873 97.048 200.518 97.3879C200.171 97.7277 199.998 98.1434 199.998 98.6351C199.998 98.881 200.059 99.1412 200.182 99.416C200.312 99.6835 200.504 99.9691 200.757 100.273L201.625 101.281ZM204.369 108.027L200.79 103.592C199.734 104.221 199.022 104.806 198.653 105.349C198.284 105.884 198.1 106.415 198.1 106.943C198.1 107.586 198.356 108.255 198.87 108.949C199.383 109.643 200.11 109.991 201.05 109.991C201.635 109.991 202.239 109.81 202.861 109.448C203.49 109.079 203.993 108.606 204.369 108.027ZM225.051 111.444V109.752C224.155 111.053 222.936 111.704 221.396 111.704C220.717 111.704 220.08 111.574 219.487 111.314C218.902 111.053 218.464 110.728 218.175 110.338C217.893 109.94 217.694 109.455 217.579 108.884C217.499 108.501 217.459 107.894 217.459 107.062V99.9258H219.412V106.314C219.412 107.333 219.451 108.02 219.531 108.375C219.654 108.888 219.914 109.293 220.312 109.589C220.709 109.878 221.201 110.023 221.787 110.023C222.372 110.023 222.922 109.875 223.435 109.578C223.949 109.275 224.31 108.866 224.52 108.353C224.737 107.832 224.845 107.08 224.845 106.097V99.9258H226.797V111.444H225.051ZM229.086 108.006L231.016 107.702C231.125 108.476 231.425 109.069 231.917 109.481C232.415 109.893 233.11 110.099 233.999 110.099C234.896 110.099 235.561 109.918 235.995 109.557C236.428 109.188 236.645 108.758 236.645 108.266C236.645 107.825 236.454 107.478 236.07 107.225C235.803 107.051 235.138 106.831 234.075 106.563C232.643 106.202 231.649 105.891 231.092 105.631C230.543 105.363 230.123 104.998 229.834 104.535C229.552 104.065 229.411 103.548 229.411 102.984C229.411 102.471 229.527 101.997 229.758 101.563C229.997 101.122 230.319 100.757 230.724 100.468C231.027 100.244 231.439 100.056 231.96 99.9041C232.488 99.745 233.052 99.6655 233.652 99.6655C234.556 99.6655 235.347 99.7956 236.027 100.056C236.714 100.316 237.22 100.67 237.545 101.119C237.871 101.56 238.095 102.153 238.218 102.897L236.309 103.158C236.222 102.565 235.969 102.102 235.55 101.77C235.138 101.437 234.552 101.271 233.793 101.271C232.896 101.271 232.256 101.419 231.873 101.715C231.49 102.012 231.298 102.359 231.298 102.756C231.298 103.01 231.378 103.237 231.537 103.44C231.696 103.649 231.945 103.823 232.285 103.96C232.481 104.033 233.055 104.199 234.01 104.459C235.391 104.828 236.352 105.132 236.895 105.37C237.444 105.602 237.874 105.941 238.185 106.39C238.496 106.838 238.652 107.395 238.652 108.06C238.652 108.711 238.46 109.325 238.077 109.904C237.701 110.475 237.155 110.92 236.439 111.238C235.723 111.549 234.914 111.704 234.01 111.704C232.513 111.704 231.371 111.393 230.583 110.771C229.802 110.15 229.303 109.228 229.086 108.006ZM248.858 107.735L250.875 107.984C250.557 109.163 249.967 110.077 249.107 110.728C248.247 111.379 247.148 111.704 245.81 111.704C244.125 111.704 242.788 111.187 241.797 110.153C240.814 109.112 240.322 107.655 240.322 105.782C240.322 103.845 240.821 102.341 241.819 101.271C242.816 100.201 244.111 99.6655 245.701 99.6655C247.242 99.6655 248.5 100.19 249.476 101.238C250.452 102.286 250.94 103.762 250.94 105.663C250.94 105.779 250.936 105.952 250.929 106.184H242.339C242.412 107.449 242.769 108.418 243.413 109.09C244.056 109.763 244.859 110.099 245.821 110.099C246.537 110.099 247.148 109.911 247.654 109.535C248.16 109.159 248.561 108.559 248.858 107.735ZM242.448 104.579H248.879C248.792 103.61 248.547 102.883 248.142 102.399C247.52 101.647 246.714 101.271 245.723 101.271C244.827 101.271 244.071 101.571 243.456 102.171C242.849 102.771 242.513 103.574 242.448 104.579ZM260.809 111.444V109.991C260.079 111.133 259.005 111.704 257.588 111.704C256.67 111.704 255.824 111.451 255.05 110.945C254.284 110.439 253.687 109.734 253.261 108.83C252.841 107.919 252.632 106.874 252.632 105.696C252.632 104.546 252.823 103.505 253.207 102.572C253.59 101.632 254.165 100.913 254.931 100.414C255.698 99.9149 256.554 99.6655 257.502 99.6655C258.196 99.6655 258.814 99.8137 259.356 100.11C259.898 100.399 260.339 100.779 260.679 101.249V95.5441H262.621V111.444H260.809ZM254.638 105.696C254.638 107.171 254.949 108.273 255.571 109.004C256.193 109.734 256.927 110.099 257.773 110.099C258.626 110.099 259.349 109.752 259.942 109.058C260.542 108.356 260.842 107.29 260.842 105.858C260.842 104.282 260.538 103.125 259.931 102.388C259.324 101.65 258.575 101.281 257.686 101.281C256.818 101.281 256.092 101.636 255.506 102.344C254.927 103.053 254.638 104.17 254.638 105.696ZM275.082 111.444L270.701 99.9258H272.761L275.234 106.824C275.502 107.568 275.748 108.342 275.972 109.145C276.145 108.537 276.387 107.807 276.698 106.954L279.258 99.9258H281.264L276.904 111.444H275.082ZM282.262 105.685C282.262 103.552 282.855 101.972 284.041 100.945C285.031 100.092 286.239 99.6655 287.663 99.6655C289.247 99.6655 290.541 100.186 291.546 101.227C292.551 102.261 293.054 103.693 293.054 105.522C293.054 107.004 292.829 108.172 292.381 109.025C291.94 109.871 291.293 110.529 290.44 110.999C289.594 111.469 288.668 111.704 287.663 111.704C286.051 111.704 284.746 111.187 283.748 110.153C282.757 109.119 282.262 107.63 282.262 105.685ZM284.269 105.685C284.269 107.16 284.59 108.266 285.234 109.004C285.877 109.734 286.687 110.099 287.663 110.099C288.632 110.099 289.438 109.73 290.082 108.993C290.725 108.255 291.047 107.131 291.047 105.62C291.047 104.195 290.722 103.118 290.071 102.388C289.428 101.65 288.625 101.281 287.663 101.281C286.687 101.281 285.877 101.647 285.234 102.377C284.59 103.107 284.269 104.21 284.269 105.685ZM295.309 111.444V95.5441H297.262V111.444H295.309ZM303.498 111.444L299.116 99.9258H301.177L303.65 106.824C303.917 107.568 304.163 108.342 304.387 109.145C304.561 108.537 304.803 107.807 305.114 106.954L307.674 99.9258H309.68L305.32 111.444H303.498ZM310.678 105.685C310.678 103.552 311.271 101.972 312.456 100.945C313.447 100.092 314.655 99.6655 316.079 99.6655C317.662 99.6655 318.957 100.186 319.962 101.227C320.967 102.261 321.469 103.693 321.469 105.522C321.469 107.004 321.245 108.172 320.797 109.025C320.356 109.871 319.709 110.529 318.855 110.999C318.009 111.469 317.084 111.704 316.079 111.704C314.467 111.704 313.161 111.187 312.164 110.153C311.173 109.119 310.678 107.63 310.678 105.685ZM312.684 105.685C312.684 107.16 313.006 108.266 313.65 109.004C314.293 109.734 315.103 110.099 316.079 110.099C317.048 110.099 317.854 109.73 318.498 108.993C319.141 108.255 319.463 107.131 319.463 105.62C319.463 104.195 319.137 103.118 318.487 102.388C317.843 101.65 317.041 101.281 316.079 101.281C315.103 101.281 314.293 101.647 313.65 102.377C313.006 103.107 312.684 104.21 312.684 105.685ZM329.951 115.858V99.9258H331.729V101.422C332.149 100.837 332.622 100.399 333.15 100.11C333.678 99.8137 334.318 99.6655 335.07 99.6655C336.053 99.6655 336.921 99.9185 337.673 100.425C338.425 100.931 338.992 101.647 339.375 102.572C339.759 103.49 339.95 104.499 339.95 105.598C339.95 106.777 339.737 107.839 339.31 108.787C338.891 109.727 338.276 110.45 337.467 110.956C336.664 111.455 335.818 111.704 334.929 111.704C334.278 111.704 333.692 111.567 333.172 111.292C332.658 111.017 332.235 110.67 331.903 110.251V115.858H329.951ZM331.718 105.75C331.718 107.232 332.018 108.328 332.619 109.036C333.219 109.745 333.945 110.099 334.799 110.099C335.666 110.099 336.407 109.734 337.022 109.004C337.644 108.266 337.955 107.127 337.955 105.587C337.955 104.119 337.651 103.02 337.044 102.29C336.443 101.56 335.724 101.195 334.885 101.195C334.054 101.195 333.316 101.585 332.673 102.366C332.037 103.14 331.718 104.268 331.718 105.75ZM349.831 110.023C349.108 110.638 348.41 111.071 347.737 111.325C347.072 111.578 346.356 111.704 345.59 111.704C344.325 111.704 343.352 111.397 342.673 110.782C341.993 110.16 341.653 109.369 341.653 108.407C341.653 107.843 341.78 107.33 342.033 106.867C342.293 106.397 342.629 106.021 343.041 105.739C343.461 105.457 343.931 105.244 344.451 105.099C344.834 104.998 345.413 104.9 346.187 104.806C347.763 104.618 348.923 104.394 349.668 104.134C349.675 103.866 349.679 103.696 349.679 103.624C349.679 102.829 349.494 102.268 349.126 101.943C348.627 101.502 347.886 101.281 346.902 101.281C345.984 101.281 345.304 101.444 344.863 101.77C344.43 102.088 344.108 102.655 343.898 103.472L341.989 103.212C342.163 102.395 342.448 101.737 342.846 101.238C343.244 100.732 343.819 100.345 344.57 100.078C345.322 99.8028 346.194 99.6655 347.184 99.6655C348.168 99.6655 348.967 99.7811 349.581 100.013C350.196 100.244 350.648 100.537 350.937 100.891C351.226 101.238 351.429 101.679 351.544 102.214C351.609 102.547 351.642 103.147 351.642 104.015V106.618C351.642 108.432 351.682 109.582 351.761 110.066C351.848 110.544 352.014 111.003 352.26 111.444H350.221C350.019 111.039 349.888 110.565 349.831 110.023ZM349.668 105.663C348.959 105.952 347.897 106.198 346.479 106.401C345.677 106.516 345.109 106.646 344.777 106.791C344.444 106.936 344.187 107.149 344.007 107.431C343.826 107.706 343.735 108.013 343.735 108.353C343.735 108.873 343.931 109.307 344.321 109.654C344.719 110.001 345.297 110.175 346.056 110.175C346.808 110.175 347.477 110.012 348.063 109.687C348.648 109.354 349.079 108.902 349.353 108.331C349.563 107.89 349.668 107.239 349.668 106.379V105.663ZM354.657 111.444V99.9258H356.414V101.672C356.862 100.855 357.274 100.316 357.65 100.056C358.034 99.7956 358.453 99.6655 358.908 99.6655C359.566 99.6655 360.235 99.8751 360.915 100.295L360.242 102.106C359.765 101.824 359.288 101.683 358.811 101.683C358.384 101.683 358.001 101.813 357.661 102.073C357.321 102.326 357.079 102.681 356.935 103.136C356.718 103.83 356.609 104.589 356.609 105.414V111.444H354.657ZM366.338 109.698L366.62 111.422C366.07 111.538 365.579 111.596 365.145 111.596C364.436 111.596 363.887 111.484 363.496 111.259C363.106 111.035 362.831 110.742 362.672 110.381C362.513 110.012 362.433 109.242 362.433 108.071V101.444H361.002V99.9258H362.433V97.0733L364.375 95.902V99.9258H366.338V101.444H364.375V108.179C364.375 108.736 364.407 109.094 364.472 109.253C364.545 109.412 364.657 109.539 364.809 109.633C364.968 109.727 365.192 109.774 365.481 109.774C365.698 109.774 365.983 109.748 366.338 109.698ZM367.477 108.006L369.407 107.702C369.516 108.476 369.816 109.069 370.307 109.481C370.806 109.893 371.5 110.099 372.39 110.099C373.286 110.099 373.951 109.918 374.385 109.557C374.819 109.188 375.036 108.758 375.036 108.266C375.036 107.825 374.844 107.478 374.461 107.225C374.194 107.051 373.528 106.831 372.466 106.563C371.034 106.202 370.04 105.891 369.483 105.631C368.933 105.363 368.514 104.998 368.225 104.535C367.943 104.065 367.802 103.548 367.802 102.984C367.802 102.471 367.918 101.997 368.149 101.563C368.388 101.122 368.709 100.757 369.114 100.468C369.418 100.244 369.83 100.056 370.351 99.9041C370.878 99.745 371.442 99.6655 372.043 99.6655C372.946 99.6655 373.738 99.7956 374.418 100.056C375.105 100.316 375.611 100.67 375.936 101.119C376.262 101.56 376.486 102.153 376.609 102.897L374.7 103.158C374.613 102.565 374.36 102.102 373.941 101.77C373.528 101.437 372.943 101.271 372.184 101.271C371.287 101.271 370.647 101.419 370.264 101.715C369.881 102.012 369.689 102.359 369.689 102.756C369.689 103.01 369.769 103.237 369.928 103.44C370.087 103.649 370.336 103.823 370.676 103.96C370.871 104.033 371.446 104.199 372.4 104.459C373.781 104.828 374.743 105.132 375.285 105.37C375.835 105.602 376.265 105.941 376.576 106.39C376.887 106.838 377.042 107.395 377.042 108.06C377.042 108.711 376.851 109.325 376.468 109.904C376.092 110.475 375.546 110.92 374.83 111.238C374.114 111.549 373.304 111.704 372.4 111.704C370.904 111.704 369.761 111.393 368.973 110.771C368.192 110.15 367.693 109.228 367.477 108.006Z" fill="white"/>
<path d="M150.476 32V9.47536H153.534L165.365 27.1601V9.47536H168.223V32H165.165L153.334 14.2999V32H150.476ZM172.34 21.0296C172.34 17.2909 173.344 14.3665 175.352 12.2564C177.36 10.136 179.951 9.07588 183.126 9.07588C185.206 9.07588 187.08 9.57267 188.75 10.5663C190.42 11.5598 191.69 12.9478 192.56 14.7301C193.441 16.5021 193.882 18.5149 193.882 20.7684C193.882 23.0526 193.421 25.0961 192.499 26.8989C191.577 28.7017 190.271 30.0692 188.581 31.0013C186.891 31.9232 185.068 32.3841 183.111 32.3841C180.991 32.3841 179.096 31.872 177.426 30.8476C175.757 29.8233 174.491 28.4251 173.631 26.6531C172.771 24.881 172.34 23.0065 172.34 21.0296ZM175.413 21.0757C175.413 23.7901 176.141 25.9309 177.595 27.4981C179.06 29.0551 180.893 29.8336 183.096 29.8336C185.339 29.8336 187.183 29.0449 188.627 27.4674C190.082 25.89 190.809 23.6519 190.809 20.753C190.809 18.9195 190.496 17.3216 189.872 15.9593C189.257 14.5867 188.35 13.5265 187.152 12.7788C185.964 12.0208 184.627 11.6418 183.142 11.6418C181.032 11.6418 179.214 12.369 177.687 13.8236C176.171 15.2679 175.413 17.6852 175.413 21.0757ZM197.784 32V9.47536H207.771C209.779 9.47536 211.305 9.68022 212.35 10.0899C213.395 10.4894 214.23 11.2013 214.855 12.2256C215.479 13.25 215.792 14.3818 215.792 15.6212C215.792 17.2192 215.275 18.5661 214.24 19.6622C213.205 20.7582 211.607 21.4547 209.446 21.7518C210.235 22.1307 210.834 22.5046 211.244 22.8734C212.115 23.6723 212.939 24.671 213.718 25.8695L217.636 32H213.887L210.906 27.3138C210.035 25.9617 209.318 24.9271 208.755 24.2101C208.191 23.4931 207.684 22.9912 207.234 22.7044C206.793 22.4176 206.343 22.2178 205.882 22.1051C205.544 22.0334 204.99 21.9976 204.222 21.9976H200.765V32H197.784ZM200.765 19.4163H207.172C208.535 19.4163 209.6 19.278 210.368 19.0015C211.136 18.7147 211.72 18.264 212.12 17.6494C212.519 17.0245 212.719 16.3485 212.719 15.6212C212.719 14.556 212.33 13.6802 211.551 12.9939C210.783 12.3076 209.564 11.9644 207.894 11.9644H200.765V19.4163ZM225.625 32V12.1335H218.204V9.47536H236.058V12.1335H228.606V32H225.625ZM239.223 32V9.47536H242.204V18.7249H253.912V9.47536H256.892V32H253.912V21.383H242.204V32H239.223ZM261.932 32V9.47536H278.219V12.1335H264.913V19.0322H277.373V21.6749H264.913V29.3419H278.741V32H261.932ZM282.905 32V9.47536H292.892C294.899 9.47536 296.426 9.68022 297.47 10.0899C298.515 10.4894 299.35 11.2013 299.975 12.2256C300.6 13.25 300.912 14.3818 300.912 15.6212C300.912 17.2192 300.395 18.5661 299.36 19.6622C298.326 20.7582 296.728 21.4547 294.567 21.7518C295.355 22.1307 295.955 22.5046 296.364 22.8734C297.235 23.6723 298.059 24.671 298.838 25.8695L302.756 32H299.007L296.026 27.3138C295.156 25.9617 294.439 24.9271 293.875 24.2101C293.312 23.4931 292.805 22.9912 292.354 22.7044C291.914 22.4176 291.463 22.2178 291.002 22.1051C290.664 22.0334 290.111 21.9976 289.343 21.9976H285.886V32H282.905ZM285.886 19.4163H292.293C293.655 19.4163 294.72 19.278 295.488 19.0015C296.257 18.7147 296.841 18.264 297.24 17.6494C297.64 17.0245 297.839 16.3485 297.839 15.6212C297.839 14.556 297.45 13.6802 296.672 12.9939C295.903 12.3076 294.684 11.9644 293.015 11.9644H285.886V19.4163ZM305.568 32V9.47536H308.625L320.456 27.1601V9.47536H323.314V32H320.256L308.426 14.2999V32H305.568ZM337.157 32V9.47536H353.444V12.1335H340.138V19.0322H352.599V21.6749H340.138V29.3419H353.966V32H337.157ZM372.865 9.47536H375.846V22.4893C375.846 24.753 375.59 26.5507 375.078 27.8823C374.565 29.2139 373.638 30.2996 372.297 31.1396C370.965 31.9693 369.213 32.3841 367.042 32.3841C364.932 32.3841 363.206 32.0205 361.864 31.2932C360.522 30.566 359.564 29.516 358.991 28.1435C358.417 26.7606 358.13 24.8759 358.13 22.4893V9.47536H361.111V22.4739C361.111 24.4303 361.29 25.8746 361.649 26.8067C362.018 27.7286 362.642 28.4405 363.523 28.9424C364.414 29.4443 365.5 29.6953 366.781 29.6953C368.973 29.6953 370.535 29.1985 371.467 28.2049C372.399 27.2113 372.865 25.301 372.865 22.4739V9.47536ZM380.87 32V9.47536H390.857C392.865 9.47536 394.391 9.68022 395.436 10.0899C396.481 10.4894 397.315 11.2013 397.94 12.2256C398.565 13.25 398.877 14.3818 398.877 15.6212C398.877 17.2192 398.36 18.5661 397.326 19.6622C396.291 20.7582 394.693 21.4547 392.532 21.7518C393.321 22.1307 393.92 22.5046 394.33 22.8734C395.2 23.6723 396.025 24.671 396.803 25.8695L400.721 32H396.972L393.991 27.3138C393.121 25.9617 392.404 24.9271 391.84 24.2101C391.277 23.4931 390.77 22.9912 390.319 22.7044C389.879 22.4176 389.428 22.2178 388.967 22.1051C388.629 22.0334 388.076 21.9976 387.308 21.9976H383.851V32H380.87ZM383.851 19.4163H390.258C391.62 19.4163 392.685 19.278 393.454 19.0015C394.222 18.7147 394.806 18.264 395.205 17.6494C395.605 17.0245 395.805 16.3485 395.805 15.6212C395.805 14.556 395.415 13.6802 394.637 12.9939C393.869 12.3076 392.65 11.9644 390.98 11.9644H383.851V19.4163ZM402.657 21.0296C402.657 17.2909 403.661 14.3665 405.669 12.2564C407.676 10.136 410.268 9.07588 413.443 9.07588C415.523 9.07588 417.397 9.57267 419.067 10.5663C420.736 11.5598 422.006 12.9478 422.877 14.7301C423.758 16.5021 424.198 18.5149 424.198 20.7684C424.198 23.0526 423.738 25.0961 422.816 26.8989C421.894 28.7017 420.588 30.0692 418.898 31.0013C417.208 31.9232 415.384 32.3841 413.428 32.3841C411.307 32.3841 409.413 31.872 407.743 30.8476C406.073 29.8233 404.808 28.4251 403.948 26.6531C403.087 24.881 402.657 23.0065 402.657 21.0296ZM405.73 21.0757C405.73 23.7901 406.457 25.9309 407.912 27.4981C409.377 29.0551 411.21 29.8336 413.412 29.8336C415.656 29.8336 417.499 29.0449 418.944 27.4674C420.398 25.89 421.126 23.6519 421.126 20.753C421.126 18.9195 420.813 17.3216 420.188 15.9593C419.574 14.5867 418.667 13.5265 417.469 12.7788C416.281 12.0208 414.944 11.6418 413.459 11.6418C411.348 11.6418 409.53 12.369 408.004 13.8236C406.488 15.2679 405.73 17.6852 405.73 21.0757ZM428.055 32V9.47536H436.552C438.047 9.47536 439.189 9.54706 439.978 9.69047C441.084 9.87484 442.011 10.2282 442.759 10.7506C443.507 11.2628 444.106 11.9849 444.557 12.9171C445.018 13.8492 445.248 14.8735 445.248 15.99C445.248 17.9055 444.639 19.529 443.42 20.8606C442.201 22.182 439.998 22.8426 436.813 22.8426H431.036V32H428.055ZM431.036 20.1846H436.859C438.785 20.1846 440.152 19.826 440.961 19.109C441.771 18.392 442.175 17.3831 442.175 16.0822C442.175 15.1398 441.934 14.3357 441.453 13.6699C440.982 12.9939 440.357 12.5483 439.579 12.3332C439.077 12.2 438.15 12.1335 436.798 12.1335H431.036V20.1846ZM449.105 32V9.47536H465.391V12.1335H452.085V19.0322H464.546V21.6749H452.085V29.3419H465.914V32H449.105ZM467.558 32L476.208 9.47536H479.419L488.638 32H485.242L482.615 25.1781H473.196L470.723 32H467.558ZM474.057 22.7505H481.693L479.342 16.5124C478.625 14.6174 478.093 13.0605 477.744 11.8415C477.458 13.2858 477.053 14.7198 476.531 16.1436L474.057 22.7505ZM490.989 32V9.47536H494.046L505.877 27.1601V9.47536H508.735V32H505.677L493.847 14.2999V32H490.989ZM148.033 75L156.684 52.4754H159.895L169.114 75H165.718L163.091 68.1781H153.672L151.199 75H148.033ZM154.533 65.7505H162.169L159.818 59.5124C159.101 57.6174 158.569 56.0605 158.22 54.8415C157.933 56.2858 157.529 57.7198 157.006 59.1436L154.533 65.7505ZM186.276 52.4754H189.257V65.4893C189.257 67.753 189.001 69.5507 188.489 70.8823C187.977 72.2139 187.05 73.2996 185.708 74.1396C184.376 74.9693 182.625 75.3841 180.453 75.3841C178.343 75.3841 176.617 75.0205 175.275 74.2932C173.933 73.566 172.976 72.516 172.402 71.1435C171.828 69.7606 171.541 67.8759 171.541 65.4893V52.4754H174.522V65.4739C174.522 67.4303 174.701 68.8746 175.06 69.8067C175.429 70.7286 176.054 71.4405 176.934 71.9424C177.826 72.4443 178.911 72.6953 180.192 72.6953C182.384 72.6953 183.946 72.1985 184.878 71.2049C185.81 70.2113 186.276 68.301 186.276 65.4739V52.4754ZM199.966 75V55.1335H192.545V52.4754H210.399V55.1335H202.947V75H199.966ZM211.981 64.0296C211.981 60.2909 212.985 57.3665 214.993 55.2564C217 53.136 219.592 52.0759 222.767 52.0759C224.847 52.0759 226.721 52.5727 228.391 53.5663C230.06 54.5598 231.331 55.9478 232.201 57.7301C233.082 59.5021 233.523 61.5149 233.523 63.7684C233.523 66.0526 233.062 68.0961 232.14 69.8989C231.218 71.7017 229.912 73.0692 228.222 74.0013C226.532 74.9232 224.708 75.3841 222.752 75.3841C220.632 75.3841 218.737 74.872 217.067 73.8476C215.397 72.8233 214.132 71.4251 213.272 69.6531C212.412 67.881 211.981 66.0065 211.981 64.0296ZM215.054 64.0757C215.054 66.7901 215.782 68.9309 217.236 70.4981C218.701 72.0551 220.534 72.8336 222.737 72.8336C224.98 72.8336 226.824 72.0449 228.268 70.4674C229.722 68.89 230.45 66.6519 230.45 63.753C230.45 61.9195 230.137 60.3216 229.512 58.9593C228.898 57.5867 227.991 56.5265 226.793 55.7788C225.605 55.0208 224.268 54.6418 222.783 54.6418C220.673 54.6418 218.854 55.369 217.328 56.8236C215.812 58.2679 215.054 60.6852 215.054 64.0757ZM246.183 75V52.4754H256.17C258.178 52.4754 259.704 52.6802 260.749 53.0899C261.794 53.4894 262.628 54.2013 263.253 55.2256C263.878 56.25 264.191 57.3818 264.191 58.6212C264.191 60.2192 263.673 61.5661 262.639 62.6622C261.604 63.7582 260.006 64.4547 257.845 64.7518C258.634 65.1307 259.233 65.5046 259.643 65.8734C260.513 66.6723 261.338 67.671 262.116 68.8695L266.034 75H262.285L259.305 70.3138C258.434 68.9617 257.717 67.9271 257.154 67.2101C256.59 66.4931 256.083 65.9912 255.632 65.7044C255.192 65.4176 254.741 65.2178 254.28 65.1051C253.942 65.0334 253.389 64.9976 252.621 64.9976H249.164V75H246.183ZM249.164 62.4163H255.571C256.933 62.4163 257.999 62.278 258.767 62.0015C259.535 61.7147 260.119 61.264 260.518 60.6494C260.918 60.0245 261.118 59.3485 261.118 58.6212C261.118 57.556 260.728 56.6802 259.95 55.9939C259.182 55.3076 257.963 54.9644 256.293 54.9644H249.164V62.4163ZM268.938 75V52.4754H285.225V55.1335H271.919V62.0322H284.38V64.6749H271.919V72.3419H285.747V75H268.938ZM305.936 67.1025L308.917 67.8554C308.292 70.3035 307.166 72.1729 305.537 73.4635C303.919 74.7439 301.936 75.3841 299.591 75.3841C297.163 75.3841 295.186 74.8924 293.66 73.9091C292.144 72.9155 290.987 71.4815 290.188 69.607C289.399 67.7325 289.005 65.7197 289.005 63.5687C289.005 61.223 289.45 59.1795 290.341 57.4382C291.243 55.6866 292.518 54.3601 294.167 53.4587C295.826 52.5471 297.65 52.0912 299.637 52.0912C301.89 52.0912 303.785 52.6649 305.322 53.8121C306.858 54.9593 307.929 56.5726 308.533 58.652L305.598 59.3434C305.076 57.7045 304.318 56.5112 303.324 55.7634C302.331 55.0157 301.081 54.6418 299.575 54.6418C297.844 54.6418 296.395 55.0566 295.227 55.8863C294.07 56.716 293.255 57.8325 292.784 59.2358C292.313 60.6289 292.077 62.0681 292.077 63.5533C292.077 65.4688 292.354 67.1435 292.907 68.5776C293.471 70.0014 294.341 71.0666 295.519 71.7734C296.697 72.4802 297.972 72.8336 299.345 72.8336C301.015 72.8336 302.428 72.3522 303.586 71.3893C304.743 70.4264 305.527 68.9975 305.936 67.1025ZM318.95 75V65.4585L310.269 52.4754H313.895L318.336 59.2666C319.155 60.5367 319.918 61.8069 320.625 63.077C321.301 61.899 322.121 60.5726 323.083 59.0975L327.447 52.4754H330.919L321.931 65.4585V75H318.95ZM349.664 67.1025L352.645 67.8554C352.02 70.3035 350.894 72.1729 349.265 73.4635C347.646 74.7439 345.664 75.3841 343.319 75.3841C340.891 75.3841 338.914 74.8924 337.388 73.9091C335.872 72.9155 334.714 71.4815 333.916 69.607C333.127 67.7325 332.732 65.7197 332.732 63.5687C332.732 61.223 333.178 59.1795 334.069 57.4382C334.971 55.6866 336.246 54.3601 337.895 53.4587C339.554 52.5471 341.378 52.0912 343.365 52.0912C345.618 52.0912 347.513 52.6649 349.05 53.8121C350.586 54.9593 351.657 56.5726 352.261 58.652L349.326 59.3434C348.804 57.7045 348.046 56.5112 347.052 55.7634C346.059 55.0157 344.809 54.6418 343.303 54.6418C341.572 54.6418 340.123 55.0566 338.955 55.8863C337.798 56.716 336.983 57.8325 336.512 59.2358C336.041 60.6289 335.805 62.0681 335.805 63.5533C335.805 65.4688 336.082 67.1435 336.635 68.5776C337.198 70.0014 338.069 71.0666 339.247 71.7734C340.425 72.4802 341.7 72.8336 343.073 72.8336C344.743 72.8336 346.156 72.3522 347.314 71.3893C348.471 70.4264 349.255 68.9975 349.664 67.1025ZM356.21 75V52.4754H359.19V72.3419H370.284V75H356.21ZM373.91 75V52.4754H390.196V55.1335H376.891V62.0322H389.351V64.6749H376.891V72.3419H390.719V75H373.91ZM394.883 75V52.4754H404.87C406.877 52.4754 408.404 52.6802 409.448 53.0899C410.493 53.4894 411.328 54.2013 411.953 55.2256C412.578 56.25 412.89 57.3818 412.89 58.6212C412.89 60.2192 412.373 61.5661 411.338 62.6622C410.304 63.7582 408.706 64.4547 406.544 64.7518C407.333 65.1307 407.932 65.5046 408.342 65.8734C409.213 66.6723 410.037 67.671 410.816 68.8695L414.734 75H410.985L408.004 70.3138C407.133 68.9617 406.416 67.9271 405.853 67.2101C405.29 66.4931 404.783 65.9912 404.332 65.7044C403.891 65.4176 403.441 65.2178 402.98 65.1051C402.642 65.0334 402.089 64.9976 401.32 64.9976H397.863V75H394.883ZM397.863 62.4163H404.27C405.633 62.4163 406.698 62.278 407.466 62.0015C408.235 61.7147 408.818 61.264 409.218 60.6494C409.617 60.0245 409.817 59.3485 409.817 58.6212C409.817 57.556 409.428 56.6802 408.649 55.9939C407.881 55.3076 406.662 54.9644 404.993 54.9644H397.863V62.4163ZM416.562 67.7632L419.374 67.5174C419.507 68.6441 419.814 69.5711 420.296 70.2984C420.787 71.0154 421.545 71.5993 422.57 72.05C423.594 72.4904 424.746 72.7107 426.027 72.7107C427.164 72.7107 428.168 72.5416 429.038 72.2036C429.909 71.8656 430.554 71.4047 430.974 70.8208C431.404 70.2267 431.62 69.5814 431.62 68.8849C431.62 68.1781 431.415 67.5635 431.005 67.0411C430.595 66.5084 429.919 66.0629 428.977 65.7044C428.373 65.4688 427.036 65.1051 424.967 64.6135C422.898 64.1116 421.448 63.6404 420.618 63.1999C419.543 62.6365 418.739 61.94 418.206 61.1103C417.684 60.2704 417.423 59.3331 417.423 58.2986C417.423 57.1616 417.745 56.1014 418.391 55.1181C419.036 54.1245 419.978 53.3716 421.218 52.8595C422.457 52.3473 423.835 52.0912 425.351 52.0912C427.02 52.0912 428.49 52.3627 429.76 52.9056C431.041 53.4382 432.024 54.2269 432.71 55.2717C433.397 56.3165 433.766 57.4996 433.817 58.821L430.959 59.0361C430.805 57.6123 430.283 56.5368 429.392 55.8095C428.511 55.0822 427.205 54.7186 425.474 54.7186C423.671 54.7186 422.355 55.0515 421.525 55.7173C420.706 56.3729 420.296 57.1667 420.296 58.0988C420.296 58.908 420.588 59.5738 421.172 60.0962C421.745 60.6186 423.241 61.1564 425.658 61.7095C428.086 62.2524 429.75 62.7287 430.652 63.1385C431.963 63.7428 432.931 64.511 433.556 65.4432C434.18 66.365 434.493 67.4303 434.493 68.639C434.493 69.8375 434.15 70.9693 433.463 72.0346C432.777 73.0897 431.789 73.9142 430.498 74.5083C429.218 75.0922 427.773 75.3841 426.165 75.3841C424.127 75.3841 422.416 75.0871 421.033 74.493C419.661 73.8989 418.58 73.0077 417.791 71.8195C417.013 70.6211 416.603 69.269 416.562 67.7632Z" fill="#FAFF00"/>
<rect width="118.464" height="118.464" fill="#0100C6"/>
<rect y="49.231" width="118.464" height="20.0003" fill="#FAFF00"/>
<rect x="69.2324" width="118.464" height="20.0003" transform="rotate(90 69.2324 0)" fill="#FAFF00"/>
</svg>
