<svg width="26" height="27" viewBox="0 0 26 27" fill="none" xmlns="http://www.w3.org/2000/svg">
<path d="M25.9609 19.7812V23.6459C25.9623 24.0046 25.8889 24.3598 25.7451 24.6885C25.6014 25.0172 25.3906 25.3123 25.1262 25.5548C24.8619 25.7974 24.5497 25.982 24.2099 26.097C23.87 26.2119 23.5099 26.2546 23.1526 26.2223C19.1886 25.7916 15.3808 24.437 12.0353 22.2675C8.9228 20.2897 6.28392 17.6508 4.30608 14.5382C2.12898 11.1776 0.774122 7.35131 0.351276 3.36946C0.319085 3.01322 0.361421 2.65419 0.475589 2.31522C0.589757 1.97624 0.773256 1.66476 1.0144 1.40058C1.25555 1.13641 1.54906 0.925349 1.87625 0.780828C2.20343 0.636307 2.55713 0.561497 2.91481 0.56116H6.77944C7.40462 0.555007 8.0107 0.776392 8.48472 1.18405C8.95875 1.59171 9.26836 2.15783 9.35586 2.77688C9.51898 4.01365 9.82149 5.22799 10.2576 6.39675C10.4309 6.85783 10.4684 7.35893 10.3657 7.84068C10.263 8.32242 10.0243 8.76462 9.67791 9.11487L8.04189 10.7509C9.87573 13.976 12.5461 16.6463 15.7711 18.4802L17.4072 16.8441C17.7574 16.4978 18.1996 16.2591 18.6814 16.1563C19.1631 16.0536 19.6642 16.0911 20.1253 16.2644C21.2941 16.7006 22.5084 17.0031 23.7452 17.1662C24.3709 17.2545 24.9424 17.5697 25.351 18.0518C25.7595 18.534 25.9766 19.1495 25.9609 19.7812Z" fill="#263137"/>
</svg>
